<?xml version="1.0" standalone="no"?>
<!DOCTYPE svg PUBLIC "-//W3C//DTD SVG 20010904//EN"
 "http://www.w3.org/TR/2001/REC-SVG-20010904/DTD/svg10.dtd">
<svg version="1.0" xmlns="http://www.w3.org/2000/svg"
 width="579.000000pt" height="238.648589pt" viewBox="0 0 579.000000 238.648589"
 preserveAspectRatio="xMidYMid meet">
<metadata>
Created by potrace 1.12, written by Peter Selinger 2001-2015
</metadata>
<g transform="translate(-57.000000,297.000000) scale(0.100000,-0.100000)"
fill="#000000" stroke="none">
<path d="M1789 2948 c-1 -17 -2 -19 -6 -5 -2 9 -14 17 -25 17 -19 0 -19 -4
-13 -107 6 -113 -2 -194 -22 -200 -7 -3 -13 9 -15 29 -2 25 -8 34 -25 36 -17
3 -23 10 -23 28 0 13 -4 24 -10 24 -5 0 -10 7 -10 16 0 8 5 12 11 8 16 -9 29
15 29 54 0 25 -4 32 -19 32 -11 0 -22 -6 -24 -12 -4 -10 -6 -10 -6 0 -1 19
-41 15 -42 -5 0 -11 -3 -13 -6 -5 -3 7 -23 12 -49 12 -42 0 -44 -1 -44 -29 0
-17 4 -32 8 -35 5 -3 8 -31 7 -63 -2 -56 -3 -58 -31 -63 -40 -7 -42 -35 -9
-119 21 -54 26 -80 23 -127 -2 -32 -8 -68 -13 -78 -7 -17 -5 -18 16 -12 53 15
259 36 349 36 52 0 149 -7 215 -15 152 -18 163 -19 147 -3 -17 17 -16 138 1
163 13 19 37 100 37 124 0 6 -13 11 -30 11 -19 0 -30 -5 -30 -14 0 -8 -7 -17
-16 -20 -22 -9 -24 -8 -24 10 0 10 6 14 15 10 13 -4 15 8 15 74 0 43 5 82 10
85 6 3 10 22 10 41 0 27 -4 34 -19 34 -11 0 -22 -8 -24 -17 -4 -17 -5 -17 -6
0 -1 10 -9 17 -20 17 -11 0 -22 -8 -24 -17 -4 -17 -5 -17 -6 0 -1 20 -37 24
-44 5 -4 -10 -6 -10 -6 0 -1 6 -10 12 -22 12 -20 0 -20 -3 -13 -90 6 -79 5
-90 -10 -90 -9 0 -16 -8 -16 -19 0 -17 -18 -31 -41 -31 -5 0 -9 50 -9 110 0
67 4 110 10 110 6 0 10 20 10 45 0 37 -3 45 -19 45 -10 0 -33 3 -50 6 -28 6
-31 4 -32 -17 l0 -24 -9 23 c-6 12 -18 22 -30 22 -14 0 -20 -7 -21 -22z m31
-8 c0 -28 36 -26 43 2 6 21 22 18 22 -4 0 -6 6 -13 13 -15 6 -3 12 2 12 11 0
9 7 16 15 16 10 0 15 -10 15 -33 l0 -33 -65 4 c-35 2 -78 -1 -95 -6 -30 -11
-30 -11 -30 24 0 18 5 34 10 34 6 0 10 -4 10 -10 0 -5 7 -10 15 -10 8 0 15 9
15 20 0 11 5 20 10 20 6 0 10 -9 10 -20z m58 -84 c3 -11 -4 -26 -14 -33 -16
-12 -16 -13 7 -13 23 0 25 3 21 30 -3 22 0 30 11 30 11 0 15 -12 15 -51 l0
-50 -42 3 c-36 3 -41 6 -39 26 2 17 -2 22 -22 22 -34 0 -36 46 -2 53 40 8 62
2 65 -17z m-242 -16 c8 0 14 7 14 15 0 8 5 15 11 15 6 0 9 -12 7 -26 -3 -24
-6 -25 -80 -27 -76 -2 -78 -2 -78 21 0 21 2 23 16 11 13 -10 17 -10 26 2 7 11
11 11 15 2 7 -19 30 -16 38 5 8 16 8 16 12 0 3 -10 11 -18 19 -18z m400 13
c12 -16 15 -16 25 -3 8 11 12 12 16 3 7 -18 33 -16 33 2 0 22 17 18 23 -5 7
-27 25 -25 30 3 3 17 5 16 6 -8 l1 -30 -80 -2 -80 -2 0 30 c0 33 7 36 26 12z
m-256 -8 c0 -8 -4 -15 -10 -15 -5 0 -10 7 -10 15 0 8 5 15 10 15 6 0 10 -7 10
-15z m-152 -57 c3 -15 -4 -18 -42 -18 -33 0 -46 4 -46 14 0 30 82 34 88 4z
m192 2 c0 -16 -7 -20 -30 -20 -23 0 -30 4 -30 20 0 16 7 20 30 20 23 0 30 -4
30 -20z m230 -5 c0 -8 -4 -15 -10 -15 -5 0 -10 7 -10 15 0 8 5 15 10 15 6 0
10 -7 10 -15z m90 0 c0 -10 -11 -15 -35 -15 -24 0 -35 5 -35 15 0 10 11 15 35
15 24 0 35 -5 35 -15z m-360 -45 c0 -11 -4 -20 -10 -20 -5 0 -10 9 -10 20 0
11 5 20 10 20 6 0 10 -9 10 -20z m110 0 c0 -17 -7 -20 -50 -20 -43 0 -50 3
-50 20 0 17 7 20 50 20 43 0 50 -3 50 -20z m30 0 c0 -11 -4 -20 -10 -20 -5 0
-10 9 -10 20 0 11 5 20 10 20 6 0 10 -9 10 -20z m-342 -7 c2 -9 -7 -13 -27
-13 -21 0 -31 5 -31 16 0 19 51 16 58 -3z m72 2 c0 -10 -10 -15 -30 -15 -20 0
-30 5 -30 15 0 10 10 15 30 15 20 0 30 -5 30 -15z m445 0 c0 -5 -15 -11 -32
-13 -25 -3 -33 1 -33 13 0 12 8 16 33 13 17 -2 32 -7 32 -13z m65 0 c0 -9 -9
-15 -25 -15 -16 0 -25 6 -25 15 0 9 9 15 25 15 16 0 25 -6 25 -15z m-20 -39
c0 -10 -7 -12 -21 -9 -15 4 -27 0 -35 -12 -13 -18 -14 -17 -14 8 0 24 4 27 35
27 23 0 35 -5 35 -14z m-547 -3 c-20 -3 -33 -10 -33 -19 0 -8 -4 -14 -10 -14
-5 0 -10 9 -10 20 0 17 6 20 43 18 36 -1 38 -2 10 -5z m107 -23 c0 -25 4 -30
25 -30 21 0 25 5 25 30 0 25 4 30 24 30 19 0 25 -6 28 -27 2 -23 8 -29 36 -31
30 -3 32 -1 32 27 0 26 4 31 25 31 21 0 25 -5 25 -30 0 -28 3 -30 35 -30 31 0
35 3 35 25 0 18 5 25 20 25 16 0 20 -7 20 -30 0 -27 3 -30 29 -30 23 0 30 5
33 22 5 35 26 33 30 -4 3 -29 7 -33 36 -36 27 -3 32 0 32 17 0 14 6 21 19 21
17 0 17 -4 6 -52 -14 -60 -8 -59 -120 -27 -108 30 -375 33 -504 5 -47 -10 -90
-20 -96 -22 -13 -5 -48 69 -43 94 3 19 47 30 49 13 1 -6 2 -17 3 -23 0 -7 16
-14 34 -16 30 -3 32 -1 32 27 0 24 4 31 20 31 14 0 20 -7 20 -21 0 -34 44 -21
48 14 2 19 9 27 23 27 14 0 19 -7 19 -30z m-140 -30 c0 -5 -9 -10 -20 -10 -11
0 -20 5 -20 10 0 6 9 10 20 10 11 0 20 -4 20 -10z m238 -70 c-14 -23 -38 -27
-38 -7 0 19 10 27 32 27 16 0 16 -3 6 -20z m91 -6 c17 -22 21 -41 21 -100 0
-43 -4 -74 -10 -74 -6 0 -10 31 -10 73 0 75 -9 97 -41 97 -29 0 -44 -31 -50
-104 l-6 -71 -1 78 c-2 71 0 80 23 102 31 32 48 31 74 -1z m51 1 c0 -28 -19
-26 -38 5 -11 18 -10 20 13 20 20 0 25 -5 25 -25z m-190 -4 c0 -15 -9 -20 -41
-23 -43 -4 -54 3 -45 27 3 10 20 15 46 15 33 0 40 -3 40 -19z m300 5 c8 -1 34
-6 58 -10 32 -6 42 -12 42 -27 0 -23 5 -22 -95 -4 -44 8 -86 14 -92 15 -7 0
-13 10 -13 21 0 22 3 23 100 5z m-400 -15 c0 -11 -9 -21 -22 -25 -41 -11 -58
-7 -58 13 0 20 16 28 58 30 15 1 22 -5 22 -18z m-96 -16 c5 -14 -20 -35 -42
-35 -12 0 -24 29 -16 41 9 15 51 10 58 -6z m324 -67 l3 -78 -31 0 -30 0 0 73
c0 80 4 89 35 85 18 -3 20 -11 23 -80z m-98 48 c0 -14 -21 -26 -46 -26 -8 0
-14 9 -14 20 0 16 7 20 30 20 19 0 30 -5 30 -14z m194 8 c22 -9 20 -34 -3 -34
-30 0 -51 11 -51 26 0 15 27 18 54 8z m-274 -18 c0 -17 -22 -26 -61 -26 -27 0
-39 17 -22 33 13 14 83 8 83 -7z m393 -2 c9 -3 17 -12 17 -20 0 -12 -9 -14
-47 -8 -58 8 -63 11 -63 31 0 12 7 14 38 9 20 -4 45 -9 55 -12z m-493 -13 c0
-14 -12 -22 -44 -30 -56 -14 -56 -14 -56 3 0 18 13 27 54 37 46 11 46 11 46
-10z m554 3 c9 -3 16 -15 16 -26 0 -14 -5 -18 -16 -14 -9 3 -20 6 -25 6 -5 0
-9 9 -9 20 0 21 8 24 34 14z m-404 -33 c0 -15 -8 -21 -32 -24 -25 -3 -22 -4
15 -5 39 -2 47 -5 47 -21 0 -17 -10 -20 -87 -26 -49 -4 -106 -11 -128 -16 -22
-5 -49 -8 -60 -8 -42 0 13 25 95 44 55 13 77 22 70 29 -17 17 -11 34 13 39 52
10 67 7 67 -12z m200 -1 c0 -11 -7 -20 -15 -20 -8 0 -15 9 -15 20 0 11 7 20
15 20 8 0 15 -9 15 -20z m86 10 c8 0 14 -9 14 -20 0 -16 -7 -20 -32 -21 -20
-1 2 -8 57 -20 83 -18 116 -32 104 -44 -3 -2 -32 0 -65 5 -32 5 -89 12 -126
15 -58 6 -68 9 -68 26 0 15 7 19 33 20 17 0 26 3 20 6 -7 2 -13 14 -13 25 0
18 4 20 31 14 17 -3 38 -6 45 -6z m-389 -37 c-3 -2 -22 -8 -42 -13 -33 -8 -36
-7 -33 13 2 17 12 23 38 27 24 3 36 1 38 -8 2 -8 1 -16 -1 -19z m495 11 c5 -3
8 -12 8 -21 0 -12 -7 -14 -37 -8 -47 9 -53 12 -53 32 0 12 7 14 37 8 21 -4 41
-9 45 -11z m-586 -22 c-4 -23 -56 -30 -56 -7 0 15 38 37 52 29 3 -2 5 -12 4
-22z"/>
<path d="M3582 1778 l3 -1183 30 0 30 0 3 1183 2 1182 -35 0 -35 0 2 -1182z"/>
<path d="M5313 2897 c-24 -11 -32 -47 -10 -47 23 0 39 17 35 37 -2 17 -7 19
-25 10z"/>
<path d="M4479 2753 l0 -138 -18 50 c-11 28 -31 85 -46 128 l-28 78 -35 -3
c-34 -3 -35 -3 -78 -122 -24 -66 -44 -123 -44 -128 0 -4 11 -8 25 -8 17 0 29
8 37 25 10 22 17 25 64 25 49 0 54 -2 60 -25 6 -24 10 -26 63 -23 l56 3 6 40
c3 22 7 32 8 23 0 -9 12 -29 24 -44 20 -23 32 -28 76 -28 46 -1 56 3 77 27
l25 29 19 -25 c26 -33 71 -43 110 -24 16 9 30 11 30 6 0 -5 14 -9 30 -9 l30 0
0 105 0 105 -30 0 c-16 0 -30 -5 -30 -10 0 -7 -6 -7 -19 0 -36 19 -90 12 -117
-15 l-26 -26 -25 26 c-48 47 -151 28 -169 -33 -7 -21 -10 -11 -14 48 -5 73 -6
75 -32 78 l-28 3 -1 -138z m-95 -31 c7 -20 4 -22 -28 -22 -41 0 -44 9 -20 66
l16 38 13 -30 c7 -17 16 -40 19 -52z m292 43 c10 -8 29 -15 42 -15 18 0 22 -5
22 -35 0 -29 -4 -35 -21 -35 -11 0 -27 -7 -35 -15 -35 -35 -84 -6 -84 50 0 24
7 39 22 49 28 20 29 20 54 1z m222 -13 c28 -36 2 -102 -41 -102 -29 0 -57 29
-57 60 0 60 61 87 98 42z"/>
<path d="M4980 2750 l0 -140 30 0 c29 0 30 2 31 43 0 38 1 40 10 17 24 -59 77
-83 129 -57 16 9 30 11 30 6 0 -5 14 -9 30 -9 l30 0 0 140 0 140 -30 0 c-29 0
-30 -2 -30 -45 0 -42 -2 -45 -19 -35 -27 14 -82 12 -103 -4 -10 -7 -24 -26
-33 -42 -14 -28 -15 -27 -15 49 l0 77 -30 0 -30 0 0 -140z m208 14 c42 -29 21
-114 -29 -114 -41 0 -74 62 -51 96 7 11 42 33 52 34 3 0 16 -7 28 -16z"/>
<path d="M5810 2845 c0 -42 -11 -58 -25 -35 -3 6 -25 10 -49 10 -73 0 -114
-72 -86 -154 19 -58 77 -80 133 -52 15 8 27 11 27 5 0 -5 11 -9 25 -9 23 0 25
4 25 43 l0 42 22 -37 c36 -62 113 -74 166 -26 12 12 22 25 22 30 0 12 -58 10
-65 -2 -10 -15 -52 -12 -69 6 -26 26 -9 34 71 34 l76 0 -6 38 c-9 51 -46 82
-100 82 -50 0 -84 -21 -103 -64 -13 -29 -13 -27 -14 52 0 81 0 82 -25 82 -23
0 -25 -4 -25 -45z m-26 -86 c31 -25 34 -61 6 -89 -32 -32 -66 -25 -89 17 -16
31 -14 41 14 68 29 30 35 31 69 4z m217 11 c35 -19 23 -40 -24 -40 -53 0 -62
8 -40 32 18 20 36 23 64 8z"/>
<path d="M5290 2715 c0 -105 0 -105 24 -105 22 0 25 5 28 43 3 40 4 41 15 17
25 -57 83 -82 133 -57 16 9 30 11 30 6 0 -5 14 -9 30 -9 l31 0 -3 103 -3 102
-27 3 c-16 2 -28 -2 -28 -8 0 -7 -6 -8 -19 0 -25 13 -77 13 -102 0 -10 -6 -28
-27 -38 -48 l-20 -37 -1 48 c0 43 -2 47 -25 47 l-25 0 0 -105z m227 16 c14
-58 -53 -105 -91 -62 -25 28 -18 82 13 97 32 16 69 -1 78 -35z"/>
<path d="M1282 2715 c-16 -14 -37 -43 -46 -65 l-16 -40 -35 21 c-65 39 -154
46 -141 12 23 -58 21 -60 -38 -55 -64 5 -78 -9 -59 -59 11 -27 10 -29 -16 -29
-62 0 -57 -50 10 -95 21 -14 41 -25 43 -25 3 0 17 -5 33 -12 27 -12 26 -12
-32 -18 -55 -6 -53 -7 35 -9 71 -1 106 -7 140 -22 65 -29 80 -46 80 -90 l0
-38 -52 24 c-71 33 -118 32 -159 -2 l-32 -27 5 37 c2 20 2 37 -1 37 -10 0 -97
-54 -119 -74 -36 -32 -62 -90 -62 -138 0 -45 29 -119 58 -152 16 -18 16 -19
-8 -14 -14 3 -33 9 -42 13 -16 6 -18 1 -19 -41 -1 -66 -11 -98 -32 -102 -24
-5 -87 60 -87 90 0 36 -8 39 -37 12 -31 -29 -43 -27 -60 8 -19 38 -5 85 38
131 35 37 38 43 29 71 l-10 31 5 -32 c4 -27 0 -36 -21 -49 -28 -19 -64 -82
-64 -114 0 -29 28 -80 43 -80 7 0 23 7 35 16 13 9 24 14 25 13 2 -2 10 -21 20
-42 16 -37 40 -52 111 -73 39 -12 41 -24 13 -65 -34 -51 -67 -59 -111 -25 -31
23 -36 25 -36 9 0 -51 87 -123 148 -123 11 0 25 -7 32 -15 7 -8 25 -15 41 -15
15 0 32 -6 36 -13 13 -22 94 -29 127 -11 46 23 73 -16 46 -67 -14 -25 -20 -24
-64 6 -45 31 -46 19 -1 -39 34 -45 33 -56 -6 -36 -14 8 -19 7 -19 -3 0 -23 48
-64 81 -71 27 -5 30 -8 19 -21 -7 -9 -29 -15 -55 -15 -37 0 -47 5 -84 45 -25
27 -41 54 -41 69 0 38 -43 66 -101 66 -27 0 -49 -3 -49 -7 0 -5 21 -23 46 -42
25 -19 66 -59 92 -90 107 -126 113 -131 179 -131 60 0 82 9 135 58 l27 25 7
-29 c3 -16 23 -63 43 -104 115 -238 420 -378 688 -315 203 48 372 210 425 408
l11 44 35 -34 c42 -42 69 -53 134 -53 55 0 51 -4 181 141 31 35 73 75 92 89
19 14 35 28 35 33 0 4 -22 7 -49 7 -57 0 -101 -28 -101 -65 0 -30 -54 -94 -93
-110 -33 -14 -71 -9 -87 11 -9 10 -3 15 29 24 40 10 71 41 71 69 0 12 -3 12
-12 3 -7 -7 -20 -12 -31 -12 -15 0 -13 7 17 42 47 55 47 75 -1 42 -20 -13 -41
-23 -47 -21 -14 4 -20 77 -8 89 5 5 20 3 36 -5 32 -17 117 -11 129 9 4 8 21
14 36 14 16 0 34 7 41 15 7 8 21 15 32 15 10 0 41 11 68 25 51 26 87 74 76
101 -5 12 -11 10 -33 -10 -15 -15 -35 -26 -43 -26 -24 0 -59 28 -76 62 -15 30
-15 32 2 45 10 7 26 13 37 13 40 0 79 33 98 82 10 26 11 26 38 10 36 -20 58
-11 69 31 14 50 5 81 -37 129 -28 32 -38 52 -38 80 -1 33 2 37 25 40 18 2 28
10 30 23 2 18 2 18 -8 3 -6 -10 -22 -18 -34 -18 -21 0 -24 -5 -28 -46 -3 -41
0 -48 24 -66 51 -36 73 -111 48 -159 -14 -25 -22 -24 -59 7 l-31 26 0 -24 c0
-52 -76 -126 -102 -100 -5 5 -11 38 -15 75 -3 37 -7 67 -9 67 -2 0 -15 -5 -29
-12 -14 -6 -27 -9 -30 -7 -2 3 9 31 25 63 62 123 22 228 -111 296 -21 11 -40
20 -42 20 -1 0 -1 -17 1 -37 l5 -37 -32 27 c-40 34 -77 34 -153 3 l-58 -24 0
34 c0 71 80 113 220 116 60 1 76 3 43 5 -29 2 -53 8 -53 12 0 4 17 13 39 19
36 11 111 71 111 89 0 17 -24 33 -51 33 -26 0 -27 2 -16 29 19 50 5 64 -59 59
-47 -4 -54 -3 -48 11 17 41 16 61 -2 62 -50 3 -106 -13 -137 -39 -20 -18 -18
-20 -42 36 -26 59 -57 82 -113 82 -43 0 -44 -1 -29 -18 26 -28 68 -132 74
-181 7 -58 -8 -113 -47 -174 l-30 -47 -462 0 -463 0 -22 34 c-37 57 -53 106
-53 162 0 58 29 147 60 187 27 34 26 37 -19 37 -27 0 -49 -8 -69 -25z m63 -32
c-60 -117 -62 -201 -9 -306 40 -81 19 -66 -42 29 -58 90 -158 204 -178 204 -6
0 1 -9 15 -20 54 -40 189 -226 189 -259 0 -6 -18 -11 -40 -11 -30 0 -40 -4
-40 -16 0 -13 -5 -12 -30 6 -16 12 -58 27 -92 35 l-63 13 113 1 c61 1 112 5
112 9 0 13 -236 112 -266 112 -16 0 -64 57 -64 76 0 20 39 27 89 15 41 -9 43
-8 36 12 -22 71 -22 70 28 65 29 -3 60 -16 81 -32 19 -14 37 -26 40 -26 3 0
10 18 16 39 14 52 63 101 100 101 l29 0 -24 -47z m1074 12 c17 -20 31 -40 31
-45 0 -5 4 -20 10 -35 l10 -25 40 26 c22 15 60 29 84 31 l45 6 -8 -29 c-5 -16
-12 -38 -17 -48 -6 -16 -4 -18 10 -13 34 13 91 18 105 8 12 -7 12 -14 2 -39
-14 -33 -28 -42 -127 -77 -106 -37 -184 -73 -184 -85 0 -6 42 -10 108 -11
l107 -1 -55 -12 c-30 -6 -72 -22 -93 -35 -31 -19 -37 -20 -37 -7 0 12 -10 16
-40 16 -22 0 -40 3 -40 7 0 3 20 39 45 78 39 62 48 72 69 68 25 -5 146 27 146
38 0 4 -27 -2 -61 -12 -63 -20 -99 -24 -99 -12 0 4 26 33 57 65 32 32 53 58
47 58 -23 0 -129 -128 -188 -228 -46 -77 -60 -74 -21 4 48 96 43 196 -17 302
-23 42 -23 42 11 42 21 0 38 -10 60 -35z m-1323 -255 c56 -21 114 -45 130 -54
28 -15 25 -15 -71 -16 -111 0 -156 9 -205 43 -44 30 -60 55 -41 66 21 14 75 2
187 -39z m1691 35 c7 -20 -22 -52 -72 -78 -33 -17 -62 -22 -160 -24 -87 -3
-115 -1 -103 7 31 19 221 92 263 100 60 12 65 11 72 -5z m-1497 -535 c0 -322
-2 -370 -15 -370 -13 0 -15 48 -15 370 0 322 2 370 15 370 13 0 15 -48 15
-370z m49 0 c-1 -310 -3 -370 -15 -370 -12 0 -14 59 -14 370 0 324 2 370 15
370 14 0 15 -45 14 -370z m51 163 c-1 -162 -4 -214 -15 -233 -13 -22 -14 1
-15 208 0 200 2 232 15 232 13 0 15 -30 15 -207z m39 55 c0 -84 -4 -162 -9
-173 -5 -12 -9 47 -9 153 -1 108 3 172 9 172 6 0 10 -57 9 -152z m51 60 c0
-51 -5 -100 -10 -108 -7 -10 -10 19 -10 93 0 65 4 107 10 107 6 0 10 -37 10
-92z m50 16 c0 -56 -3 -75 -12 -72 -8 3 -14 27 -16 63 -3 62 1 85 18 85 6 0
10 -30 10 -76z m50 0 c0 -56 -3 -75 -12 -72 -9 3 -14 30 -16 76 -2 60 0 72 13
72 12 0 15 -14 15 -76z m45 1 c0 -46 -4 -70 -12 -72 -10 -4 -13 15 -13 72 0
57 3 76 13 73 8 -3 12 -27 12 -73z m47 5 c0 -38 -4 -66 -11 -68 -7 -2 -11 20
-11 68 0 48 4 70 11 68 7 -2 11 -30 11 -68z m48 10 c0 -33 -4 -60 -10 -60 -6
0 -10 27 -10 60 0 33 4 60 10 60 6 0 10 -27 10 -60z m48 10 c-4 -60 -22 -71
-26 -16 -4 43 2 66 18 66 7 0 10 -19 8 -50z m52 -6 c0 -73 -24 -70 -28 4 -2
42 0 52 12 52 13 0 16 -12 16 -56z m50 -10 c0 -48 -3 -65 -12 -62 -8 3 -14 28
-16 66 -2 51 0 62 13 62 12 0 15 -13 15 -66z m40 -3 c0 -39 -4 -73 -10 -76 -6
-4 -10 22 -10 69 0 44 4 76 10 76 6 0 10 -30 10 -69z m50 10 c0 -33 -4 -63
-10 -66 -6 -4 -10 18 -10 59 0 37 4 66 10 66 6 0 10 -26 10 -59z m48 4 c-4
-66 -22 -78 -26 -16 -4 49 2 71 18 71 7 0 10 -20 8 -55z m52 -6 c0 -81 -24
-77 -28 4 -2 46 0 57 13 57 12 0 15 -13 15 -61z m40 -10 c0 -44 -4 -68 -10
-64 -5 3 -10 35 -10 71 0 36 4 64 10 64 6 0 10 -30 10 -71z m50 -9 c0 -47 -4
-80 -10 -80 -6 0 -10 33 -10 80 0 47 4 80 10 80 6 0 10 -33 10 -80z m50 -11
c0 -68 -3 -90 -12 -87 -9 3 -14 30 -16 78 -3 77 1 100 18 100 6 0 10 -35 10
-91z m50 5 c0 -64 -3 -85 -12 -82 -13 5 -22 143 -11 161 15 24 23 -4 23 -79z
m45 6 c0 -50 -4 -75 -12 -77 -10 -4 -13 16 -13 77 0 61 3 81 13 78 8 -3 12
-28 12 -78z m55 6 c0 -79 -6 -109 -21 -100 -5 3 -9 43 -9 90 0 68 3 84 15 84
12 0 15 -15 15 -74z m40 -296 c0 -240 -4 -370 -10 -370 -6 0 -10 130 -10 370
0 240 4 370 10 370 6 0 10 -130 10 -370z m50 0 c0 -240 -4 -370 -10 -370 -6 0
-10 130 -10 370 0 240 4 370 10 370 6 0 10 -130 10 -370z m-1468 227 c-26 -10
-72 -2 -72 13 0 5 19 20 43 34 l42 26 5 -33 c4 -27 1 -33 -18 -40z m1816 15
c4 -14 -34 -25 -64 -18 -20 5 -24 13 -24 42 l0 36 42 -25 c23 -14 44 -29 46
-35z m-1590 16 c23 -11 42 -24 42 -28 0 -5 -19 0 -42 10 -47 22 -96 25 -146
10 -30 -8 -32 -7 -21 7 32 37 90 38 167 1z m1437 18 c44 -19 48 -39 4 -24 -38
13 -117 5 -160 -17 -17 -9 -28 -12 -24 -6 12 20 89 54 138 60 4 1 23 -6 42
-13z m-1430 -50 c24 -10 35 -21 35 -35 0 -25 2 -25 -43 -6 -67 28 -157 12
-165 -28 -3 -14 2 -12 22 8 32 32 90 34 146 5 33 -17 40 -26 40 -50 0 -25 -4
-30 -23 -30 -31 0 -67 27 -67 51 0 37 -47 13 -63 -33 -3 -9 -25 -22 -48 -29
-39 -12 -42 -11 -60 12 -10 13 -19 19 -19 13 0 -14 55 -64 108 -97 23 -16 52
-42 63 -60 16 -25 20 -27 16 -9 -5 20 -1 22 34 22 43 0 51 13 19 30 -26 14
-17 30 16 30 l24 0 0 -256 c0 -229 -2 -255 -15 -244 -9 7 -13 20 -10 30 3 9
-8 34 -25 58 -35 49 -37 58 -9 67 11 4 28 22 37 42 15 31 15 37 1 61 -10 19
-24 28 -46 30 -26 3 -30 7 -26 25 4 19 2 19 -13 -5 -30 -45 -81 -61 -176 -56
-87 5 -148 27 -148 53 0 19 -1 19 51 -5 24 -11 54 -20 67 -20 22 0 22 1 7 30
-18 34 -30 40 -20 10 5 -14 2 -20 -10 -20 -31 0 -55 20 -56 48 -2 23 -2 24 -6
5 -8 -40 -23 -25 -23 22 0 48 15 59 30 23 5 -13 9 -17 9 -10 1 6 13 12 27 12
21 0 24 4 19 20 -6 18 -2 20 49 20 l55 0 -21 -36 c-26 -45 -34 -124 -12 -124
12 0 13 4 3 21 -15 29 2 87 35 118 l24 22 21 -27 c46 -59 36 -96 -32 -121 -25
-9 -27 -12 -10 -12 28 -1 83 45 83 70 0 28 -26 75 -51 93 -16 11 -39 13 -95 9
-63 -5 -74 -3 -80 11 -4 10 -2 22 4 28 15 15 4 38 -18 38 -21 0 -30 19 -30 61
0 35 6 36 29 7 18 -22 41 -18 41 7 0 7 7 15 15 19 12 4 12 11 -6 40 l-20 35
33 -5 c19 -3 61 4 98 15 71 22 126 21 185 -3z m635 8 c22 -9 40 -20 40 -24 0
-6 -126 -325 -163 -412 -14 -32 -29 -34 -83 -12 -33 14 -48 14 -116 4 -72 -11
-161 -10 -174 3 -3 3 30 97 74 209 l79 203 84 6 c46 4 102 14 124 22 52 20 86
21 135 1z m828 -5 c42 -12 88 -18 104 -15 34 7 34 3 7 -35 -18 -25 -18 -30 -5
-35 9 -3 16 -12 16 -19 0 -25 23 -29 41 -7 23 29 29 28 29 -7 0 -38 -9 -61
-24 -61 -22 0 -37 -22 -25 -37 6 -7 8 -20 5 -29 -6 -14 -17 -16 -80 -11 -51 5
-78 3 -89 -6 -21 -17 -57 -78 -57 -99 0 -22 56 -68 83 -67 21 0 20 1 -3 10
-42 17 -71 50 -64 73 9 28 43 76 54 76 5 0 20 -19 34 -42 14 -24 26 -36 26
-27 0 9 -9 28 -21 43 l-20 26 56 0 c52 0 56 -2 50 -20 -5 -16 -2 -20 18 -20
40 0 53 -71 18 -90 -34 -18 -53 -13 -46 13 6 21 6 21 -9 3 -9 -11 -16 -23 -16
-28 0 -4 -6 -8 -13 -8 -9 0 -13 10 -12 28 2 15 0 18 -2 7 -3 -11 -10 -26 -15
-32 -17 -21 71 -16 121 7 52 24 51 24 51 5 0 -44 -202 -75 -268 -41 -49 25
-65 58 -60 116 6 56 26 81 110 132 47 29 78 70 78 103 0 21 -13 19 -35 -5 -23
-25 -35 -25 -35 -1 0 59 -95 90 -174 57 -48 -20 -46 -20 -46 2 0 12 13 25 38
35 78 33 84 33 180 6z m-570 -13 c65 -32 95 -38 144 -27 23 6 44 8 46 6 4 -3
-35 -115 -59 -170 -5 -11 -26 -69 -48 -130 -22 -60 -42 -118 -46 -127 -6 -15
-21 -18 -102 -18 -58 0 -117 6 -151 16 -35 10 -73 14 -102 11 l-47 -6 90 224
c99 246 96 243 185 244 26 1 61 -8 90 -23z m-1205 -36 c10 -17 13 -30 8 -30
-6 0 -11 -7 -11 -15 0 -20 -13 -19 -34 4 -14 15 -15 23 -5 45 15 33 21 33 42
-4z m1946 4 c10 -22 9 -30 -5 -45 -21 -23 -34 -24 -34 -4 0 8 -5 15 -11 15 -5
0 -2 13 8 30 21 37 27 37 42 4z m-519 -4 c0 -8 -58 -166 -95 -260 -8 -19 -29
-73 -46 -119 l-32 -84 -206 7 c-113 4 -210 11 -214 15 -10 10 46 31 83 31 15
0 47 -7 71 -16 27 -9 84 -16 148 -17 l104 -2 18 45 c10 25 48 127 85 228 37
100 71 182 76 182 4 0 8 -4 8 -10z m314 -11 c15 -12 26 -30 26 -45 0 -26 27
-33 48 -12 17 17 15 -4 -2 -27 -12 -17 -17 -18 -54 -6 -28 10 -43 22 -53 45
-16 35 -59 50 -59 20 0 -28 -30 -54 -62 -54 -26 0 -29 3 -26 27 7 63 125 97
182 52z m-315 -63 c-12 -31 -24 -55 -26 -53 -2 2 6 30 18 61 12 31 24 55 26
53 2 -2 -6 -30 -18 -61z m-1172 15 c8 -22 21 -33 52 -42 29 -8 41 -18 41 -31
0 -13 -8 -18 -30 -18 -33 0 -52 -26 -29 -40 22 -14 2 -23 -28 -12 -22 7 -28
15 -26 36 2 29 0 30 -28 16 -14 -8 -27 -6 -51 6 l-33 17 38 16 c27 11 43 27
52 49 17 40 27 40 42 3z m1441 -7 c8 -18 28 -35 50 -45 l37 -15 -28 -19 c-24
-15 -33 -16 -48 -7 -29 19 -40 14 -33 -12 6 -26 -17 -46 -52 -46 -16 0 -16 2
2 21 16 17 16 22 4 29 -8 6 -27 10 -42 10 -21 0 -28 5 -28 20 0 12 7 20 18 20
30 0 82 38 82 61 0 29 22 19 38 -17z m-238 -198 c0 -200 -6 -286 -21 -286 -10
0 -12 439 -3 464 18 46 24 -2 24 -178z m-74 83 c-9 -19 -15 -29 -16 -22 0 15
22 64 27 60 2 -2 -3 -19 -11 -38z m229 12 c3 -5 -4 -16 -15 -24 -25 -17 -16
-27 24 -27 l31 0 0 -75 c0 -74 0 -75 -25 -75 -36 0 -50 -18 -50 -62 0 -30 6
-42 34 -64 l33 -27 -33 -49 c-18 -28 -30 -56 -28 -63 3 -6 -2 -18 -11 -25 -13
-11 -15 14 -15 244 l0 256 24 0 c14 0 27 -4 31 -9z m-207 -198 c-2 -130 -6
-177 -15 -181 -10 -3 -13 32 -13 155 0 159 5 203 21 203 6 0 8 -76 7 -177z
m572 82 c0 -25 -4 -45 -9 -45 -10 0 -23 69 -15 82 13 21 24 4 24 -37z m-620
-141 c0 -96 -3 -125 -12 -122 -22 8 -15 248 7 248 3 0 5 -57 5 -126z m-1039
22 c16 -33 -7 -77 -50 -97 -19 -9 -29 -19 -23 -22 5 -4 24 -28 41 -54 24 -35
28 -49 20 -60 -8 -9 -8 -13 0 -13 21 0 38 -56 45 -145 l6 -91 -32 -31 c-39
-37 -76 -53 -125 -53 -35 0 -103 33 -103 50 0 5 -41 52 -91 105 -82 85 -89 95
-66 95 52 0 75 -17 88 -62 13 -49 71 -111 115 -122 34 -9 78 9 99 40 15 24 15
24 -24 24 -24 0 -48 7 -62 20 l-24 19 38 1 c38 0 50 14 19 24 -9 3 -23 15 -30
27 -13 20 -12 21 17 14 23 -5 32 -2 40 14 17 31 13 76 -9 96 -18 16 -20 16
-45 -3 -20 -16 -35 -19 -68 -15 -23 3 -46 12 -50 19 -4 8 -20 14 -34 14 -15 0
-34 6 -42 13 -9 8 -38 20 -65 27 -51 14 -106 53 -106 75 0 11 6 11 29 -2 38
-23 80 -5 112 47 26 43 59 54 59 20 0 -27 -27 -92 -43 -102 -9 -6 -9 -8 0 -8
18 0 43 41 50 83 5 32 9 37 32 37 20 0 32 -9 46 -32 10 -18 58 -73 107 -121
70 -70 88 -93 88 -117 0 -16 -4 -32 -10 -35 -5 -3 -10 -11 -10 -16 0 -21 20 3
29 34 l9 32 17 -39 c13 -31 15 -47 7 -78 -5 -21 -6 -38 -2 -38 9 0 20 36 20
68 0 42 -38 97 -144 204 -100 101 -124 138 -92 138 7 0 19 -7 26 -15 14 -17
86 -39 100 -30 6 3 5 15 -2 30 -17 38 -4 55 42 55 33 0 42 -4 51 -24z m1367
-4 c2 -13 -2 -29 -8 -37 -7 -9 -8 -15 -1 -20 15 -9 86 12 101 30 15 18 40 20
40 4 0 -16 -64 -93 -127 -154 -93 -89 -113 -121 -113 -179 0 -28 5 -58 10 -66
6 -9 7 5 3 41 -3 36 -1 64 7 79 l12 23 14 -33 c8 -18 17 -30 20 -27 3 3 0 15
-6 27 -19 35 3 76 79 146 38 36 82 85 98 109 22 35 34 45 55 45 23 0 27 -5 33
-40 4 -22 15 -50 26 -62 18 -22 18 -21 -1 22 -40 92 -8 126 43 45 33 -52 73
-66 112 -41 21 14 25 14 25 2 0 -23 -54 -62 -106 -76 -27 -7 -56 -19 -65 -27
-8 -7 -26 -13 -39 -13 -12 0 -28 -6 -34 -14 -6 -7 -30 -16 -53 -19 -33 -4 -49
-1 -69 16 -26 20 -27 20 -40 2 -19 -25 -18 -89 1 -105 12 -10 21 -10 41 -1 37
17 27 -8 -14 -34 -41 -26 -40 -35 6 -35 l37 -1 -24 -19 c-13 -11 -38 -20 -57
-20 -39 0 -43 -11 -14 -40 44 -44 107 -34 160 26 16 19 32 47 36 62 3 15 7 33
10 40 4 15 47 32 82 32 24 0 19 -7 -52 -78 -43 -43 -87 -93 -98 -111 -53 -84
-185 -80 -244 7 -18 27 -20 41 -16 109 5 80 22 130 48 140 11 4 12 9 4 19 -14
15 0 45 39 87 22 24 23 29 11 37 -8 5 -20 10 -26 10 -17 0 -44 45 -44 73 0 33
20 48 60 45 28 -2 36 -8 38 -26z m-898 -14 c34 -16 32 -16 -96 -17 -140 -1
-224 7 -224 20 0 22 271 19 320 -3z m964 -15 c-29 -21 -54 -16 -54 11 0 23 2
24 36 13 33 -10 34 -12 18 -24z m-1541 7 c6 -23 -21 -27 -56 -8 -21 11 -21 11
-2 19 34 13 52 10 58 -11z m1097 -56 c0 -48 -3 -65 -12 -62 -19 6 -22 46 -7
90 7 21 14 38 16 38 1 0 3 -30 3 -66z m-562 29 c-21 -2 -55 -2 -75 0 -21 2 -4
4 37 4 41 0 58 -2 38 -4z m-248 -54 c0 -28 -4 -39 -15 -39 -11 0 -15 11 -15
38 0 21 3 42 6 45 14 13 24 -6 24 -44z m40 6 c0 -25 -4 -45 -10 -45 -11 0 -14
73 -3 83 11 12 13 8 13 -38z m407 38 c-20 -2 -52 -2 -70 0 -17 2 0 4 38 4 39
0 53 -2 32 -4z m-357 -43 c0 -22 -4 -40 -10 -40 -5 0 -10 18 -10 40 0 22 5 40
10 40 6 0 10 -18 10 -40z m50 -1 c0 -28 -4 -39 -12 -37 -24 8 -22 78 2 78 5 0
10 -18 10 -41z m50 1 c0 -29 -4 -40 -15 -40 -11 0 -15 11 -15 40 0 29 4 40 15
40 11 0 15 -11 15 -40z m45 0 c0 -18 -6 -35 -12 -37 -9 -3 -13 8 -13 37 0 29
4 40 13 38 6 -3 12 -20 12 -38z m45 0 c0 -22 -4 -40 -10 -40 -5 0 -10 18 -10
40 0 22 5 40 10 40 6 0 10 -18 10 -40z m50 0 c0 -22 -4 -40 -10 -40 -5 0 -10
18 -10 40 0 22 5 40 10 40 6 0 10 -18 10 -40z m50 -6 c0 -45 -24 -42 -28 4 -2
24 1 32 12 32 12 0 16 -10 16 -36z m50 1 c0 -24 -5 -35 -15 -35 -10 0 -15 11
-15 35 0 24 5 35 15 35 10 0 15 -11 15 -35z m50 16 c0 -26 -10 -51 -21 -51 -5
0 -9 16 -9 35 0 24 5 35 15 35 8 0 15 -9 15 -19z m40 -16 c0 -19 -4 -35 -10
-35 -5 0 -10 16 -10 35 0 19 5 35 10 35 6 0 10 -16 10 -35z m50 0 c0 -19 -4
-35 -10 -35 -5 0 -10 16 -10 35 0 19 5 35 10 35 6 0 10 -16 10 -35z m50 -6 c0
-19 -5 -29 -15 -29 -15 0 -22 50 -9 63 12 12 24 -4 24 -34z m50 1 c0 -20 -5
-30 -15 -30 -10 0 -15 10 -15 30 0 20 5 30 15 30 10 0 15 -10 15 -30z m40 0
c0 -16 -4 -30 -10 -30 -5 0 -10 14 -10 30 0 17 5 30 10 30 6 0 10 -13 10 -30z
m50 0 c0 -16 -4 -30 -10 -30 -5 0 -10 14 -10 30 0 17 5 30 10 30 6 0 10 -13
10 -30z m-302 -152 c1 -60 1 -108 -2 -108 -15 0 -88 40 -121 66 -62 49 -143
86 -168 78 -12 -4 -31 -8 -42 -9 -11 -1 -30 -2 -42 -3 -13 -1 -41 -20 -63 -41
-37 -36 -115 -81 -140 -81 -10 0 -11 12 -11 115 0 30 0 64 0 75 1 20 6 20 294
18 l292 -3 3 -107z m592 -2 c0 -118 -17 -236 -44 -299 -17 -42 -30 -46 -46
-17 -6 11 -17 20 -25 20 -14 0 -20 36 -16 96 1 11 -10 33 -24 48 -20 22 -25
34 -20 57 9 39 -18 50 -49 20 -15 -14 -26 -18 -30 -12 -8 13 3 60 21 88 18 27
11 52 -23 84 l-26 24 -29 -33 c-30 -33 -37 -60 -20 -78 6 -5 13 -28 17 -52 6
-36 4 -41 -9 -36 -8 3 -18 12 -21 20 -11 28 -43 13 -86 -38 l-44 -51 3 -89 2
-88 -55 0 -56 0 0 225 0 225 290 0 290 0 0 -114z m-264 76 c28 -19 33 -48 14
-80 -24 -39 -33 -40 -59 -6 -26 33 -26 45 -1 72 22 24 29 26 46 14z m-471
-118 c22 -17 64 -43 93 -58 51 -26 52 -27 52 -71 l0 -45 -20 20 c-11 11 -20
25 -20 31 0 11 -28 9 -62 -5 -12 -6 -19 1 -29 28 -10 26 -19 36 -35 36 -24 0
-38 -22 -23 -37 6 -6 4 -14 -6 -23 -10 -8 -15 -9 -15 -1 0 7 -21 11 -54 11
-49 0 -54 2 -49 20 3 11 -2 31 -11 45 -9 13 -16 32 -16 40 0 9 -6 15 -12 12
-7 -2 -12 -10 -10 -17 2 -7 -3 -20 -11 -29 -23 -27 -27 -50 -11 -59 11 -6 12
-14 5 -33 -5 -13 -10 -18 -10 -11 -1 6 -10 12 -20 12 -11 0 -22 -6 -25 -12 -3
-10 -8 -9 -15 3 -6 9 -19 27 -30 40 -18 20 -22 22 -31 9 -5 -8 -10 -32 -10
-52 0 -21 -4 -38 -10 -38 -5 0 -10 -9 -10 -19 0 -32 -19 -35 -30 -5 -6 15 -13
52 -16 83 l-6 56 52 18 c29 10 71 36 94 57 47 44 90 64 121 56 11 -3 26 -1 34
4 18 10 91 -22 146 -66z m468 -28 c-6 -32 19 -40 48 -15 12 10 26 19 31 19 17
0 -3 -64 -28 -91 -19 -20 -23 -32 -18 -57 6 -27 4 -31 -10 -26 -9 3 -15 13
-14 22 2 8 -3 17 -9 19 -7 3 -13 -3 -13 -14 -1 -26 -35 -63 -59 -63 -17 0 -21
6 -21 35 0 19 5 44 12 55 10 16 9 23 -9 42 -12 13 -23 28 -23 33 -1 6 -6 9
-11 7 -6 -1 -5 7 1 18 13 25 16 25 47 0 30 -23 43 -18 43 16 0 17 6 24 19 24
14 0 17 -6 14 -24z m-110 -71 c15 -14 27 -28 27 -30 0 -3 -20 -2 -45 2 -29 4
-50 1 -60 -7 -8 -7 -15 -9 -15 -4 0 9 51 64 59 64 4 0 19 -11 34 -25z m-683
-46 c0 -14 7 -19 25 -19 26 0 32 -14 15 -40 -6 -10 -10 -11 -10 -2 0 6 -7 12
-15 12 -8 0 -15 -8 -15 -18 0 -9 -9 -23 -20 -30 -19 -12 -20 -10 -20 56 0 38
3 72 7 75 10 11 33 -13 33 -34z m140 17 c0 -25 -16 -43 -28 -31 -3 3 0 11 8
16 11 8 12 12 3 16 -18 7 -16 23 2 23 9 0 15 -9 15 -24z m762 7 c27 -24 23
-28 -26 -28 -43 0 -43 0 -27 22 19 27 29 28 53 6z m-652 -32 c0 -29 -1 -30
-37 -24 -34 6 -62 26 -63 46 0 4 23 7 50 7 49 0 50 -1 50 -29z m96 -1 c8 0 26
7 39 16 18 12 25 13 25 4 0 -7 8 -19 18 -26 9 -7 12 -14 5 -14 -6 0 -15 5 -18
10 -9 15 -41 12 -55 -5 -16 -20 -40 -2 -39 29 1 17 2 17 6 4 2 -10 11 -18 19
-18z m-46 13 c0 -5 -5 -15 -10 -23 -6 -10 -4 -20 7 -32 15 -17 15 -18 0 -18
-10 0 -17 -4 -17 -10 0 -5 -4 -10 -10 -10 -14 0 -12 74 2 88 13 13 28 16 28 5z
m340 -91 l0 -98 -62 3 c-88 6 -103 10 -35 12 l57 1 0 78 c0 72 9 102 32 102 4
0 8 -44 8 -98z m52 40 c3 -45 4 -47 36 -50 17 -2 32 1 32 5 0 5 6 18 14 29 14
19 15 19 40 -5 14 -14 26 -19 26 -13 0 7 7 12 15 12 8 0 15 -5 15 -11 0 -5 -5
-7 -10 -4 -6 3 -13 -1 -16 -9 -5 -12 -22 -16 -75 -16 -39 0 -69 -4 -69 -10 0
-5 7 -10 15 -10 22 0 19 -40 -2 -41 -17 -1 -17 -2 0 -6 18 -5 25 -53 7 -53 -5
0 -10 -16 -10 -35 0 -33 -2 -35 -35 -35 -19 0 -35 -4 -35 -10 0 -5 -3 -10 -8
-10 -4 0 -6 20 -4 45 3 29 9 45 17 45 10 0 13 22 10 98 -3 113 1 143 20 135 8
-3 15 -24 17 -51z m-483 1 c36 -5 41 -9 41 -32 0 -19 -3 -22 -9 -12 -6 10 -21
12 -50 8 l-41 -5 0 36 c0 24 3 32 9 24 4 -8 27 -16 50 -19z m661 17 c0 -5 -7
-10 -15 -10 -8 0 -15 5 -15 10 0 6 7 10 15 10 8 0 15 -4 15 -10z m40 0 c0 -5
-4 -10 -10 -10 -5 0 -10 -7 -10 -15 0 -8 7 -15 15 -15 8 0 15 -8 14 -17 0 -11
-3 -13 -6 -5 -8 19 -23 14 -23 -8 0 -11 6 -19 13 -17 18 3 21 -57 3 -73 -9 -7
-16 -18 -16 -25 0 -7 -9 -15 -20 -18 -14 -4 -20 -14 -20 -32 0 -23 -2 -26 -15
-15 -8 7 -15 25 -15 41 0 22 -5 29 -20 29 -11 0 -20 -6 -21 -12 -1 -7 -2 -25
-3 -40 -1 -34 -16 -49 -16 -17 0 13 -3 41 -6 62 l-7 37 52 0 c44 0 51 -3 51
-20 0 -11 5 -20 10 -20 6 0 10 11 10 25 0 14 -4 25 -10 25 -5 0 -7 7 -4 15 4
10 0 15 -11 15 -11 0 -15 -5 -11 -15 4 -12 -4 -15 -43 -15 -44 0 -49 2 -44 20
4 15 14 20 42 20 21 0 41 3 45 8 13 12 31 8 38 -8 4 -8 7 13 7 48 1 48 4 62
16 62 8 0 15 -4 15 -10z m-771 -47 c-1 -27 -3 -40 -6 -30 -3 11 -11 16 -19 13
-10 -4 -14 4 -14 29 0 28 4 35 20 35 17 0 20 -6 19 -47z m324 30 c4 -2 7 -14
6 -26 0 -12 -3 -16 -6 -9 -12 29 -60 4 -76 -40 -5 -13 -17 -18 -47 -18 -22 0
-40 5 -40 10 0 6 -16 10 -35 10 -23 0 -35 -5 -35 -14 0 -9 -7 -12 -20 -9 -11
3 -20 9 -20 14 0 5 -10 9 -21 9 -18 0 -19 2 -9 15 15 18 67 20 73 3 3 -10 11
-10 35 -1 18 6 32 7 32 2 0 -4 7 -6 15 -3 8 4 15 13 15 21 0 8 10 23 23 34 17
15 31 18 62 13 22 -4 43 -8 48 -11z m-388 -50 c-13 -39 -29 -52 -40 -34 -11
19 -32 12 -39 -11 -4 -18 -8 -20 -18 -10 -6 6 -20 12 -30 12 -20 0 -23 30 -8
65 7 17 9 15 9 -12 1 -26 5 -33 21 -33 11 0 20 4 20 10 0 5 16 12 35 16 29 5
35 11 35 31 0 21 3 23 14 14 11 -9 11 -18 1 -48z m395 -55 c0 -38 -25 -48
-118 -48 -63 0 -84 -4 -104 -19 -15 -12 -55 -24 -109 -31 -46 -7 -93 -17 -103
-23 -22 -11 -45 11 -85 84 -19 33 -20 39 -7 39 9 0 16 -7 16 -15 0 -21 16 -19
41 6 l20 20 18 -20 c17 -19 18 -20 37 -2 19 19 104 36 104 21 0 -4 12 -11 26
-14 19 -5 30 -2 39 11 12 15 17 16 34 6 32 -20 110 -17 118 4 4 9 14 25 22 35
15 18 16 17 33 -4 10 -13 18 -35 18 -50z m501 10 c24 -30 24 -30 -11 -86 l-30
-47 0 71 c0 89 8 101 41 62z m-346 -58 c4 -6 -20 -10 -64 -10 -41 0 -71 4 -71
10 0 6 28 10 64 10 36 0 68 -4 71 -10z m-155 -140 c0 -120 -2 -142 -16 -147
-29 -11 -167 26 -251 67 -44 22 -103 60 -129 84 -47 42 -48 43 -26 55 12 6 52
14 90 18 42 3 80 13 102 26 26 16 59 23 125 28 50 3 93 6 98 7 4 1 7 -61 7
-138z m450 96 c0 -25 -4 -48 -10 -51 -6 -4 -10 13 -10 44 0 28 5 51 10 51 6 0
10 -20 10 -44z m-408 -31 c2 -31 -1 -45 -9 -45 -7 0 -13 6 -13 14 0 7 -3 28
-6 45 -5 24 -3 31 9 31 11 0 16 -13 19 -45z m50 20 c-2 -15 0 -25 7 -25 6 0
11 11 11 25 0 14 5 25 10 25 6 0 10 -20 10 -45 0 -43 -12 -59 -24 -32 -5 10
-7 10 -12 0 -3 -7 -10 -13 -15 -13 -13 0 -11 64 3 78 16 16 16 16 10 -13z
m248 -5 c0 -16 -4 -30 -10 -30 -5 0 -10 14 -10 30 0 17 5 30 10 30 6 0 10 -13
10 -30z m-62 -7 c-4 -39 -28 -42 -28 -4 0 21 5 31 16 31 11 0 14 -8 12 -27z
m132 2 c0 -14 -4 -25 -10 -25 -5 0 -10 11 -10 25 0 14 5 25 10 25 6 0 10 -11
10 -25z m-70 -54 c0 -6 -4 -13 -10 -16 -5 -3 -10 -19 -10 -35 0 -20 -8 -35
-25 -46 -40 -26 -166 -66 -227 -72 l-58 -5 0 82 0 81 85 0 c50 0 85 4 85 10 0
6 33 10 80 10 44 0 80 -4 80 -9z m80 2 c0 -9 -75 -73 -84 -73 -10 0 -7 25 7
53 9 21 19 27 45 27 17 0 32 -3 32 -7z"/>
<path d="M1065 2512 c15 -15 101 -42 133 -41 17 0 2 7 -38 18 -36 10 -74 21
-85 26 -14 5 -17 5 -10 -3z"/>
<path d="M950 2077 c0 -7 15 -18 33 -25 40 -15 47 -15 47 -2 0 5 -6 7 -13 4
-7 -2 -22 4 -32 16 -21 23 -35 26 -35 7z"/>
<path d="M1773 2093 c-12 -32 -20 -59 -18 -62 3 -2 9 7 14 20 5 13 16 41 25
62 9 20 13 37 9 37 -5 0 -18 -26 -30 -57z"/>
<path d="M1613 2106 c-18 -18 -33 -37 -33 -41 0 -16 37 -34 71 -35 28 0 38 5
50 26 12 23 11 28 -2 38 -8 6 -18 19 -22 29 -9 25 -28 20 -64 -17z m72 -20
c17 -12 18 -15 3 -30 -20 -19 -56 -20 -81 -2 -13 10 -15 16 -5 23 31 24 58 27
83 9z"/>
<path d="M1540 2127 c0 -4 -11 -36 -25 -72 -13 -36 -21 -65 -17 -65 10 0 54
131 47 138 -3 3 -5 2 -5 -1z"/>
<path d="M1806 2062 c-13 -21 -25 -62 -18 -62 9 0 34 62 28 68 -2 2 -7 -1 -10
-6z"/>
<path d="M1670 1981 c-8 -6 -11 -13 -7 -18 5 -4 12 -1 17 7 6 8 10 10 10 4 0
-13 31 -14 48 -1 9 7 12 4 12 -9 0 -16 2 -16 10 -4 5 8 7 16 5 19 -10 9 -81
10 -95 2z"/>
<path d="M1624 1966 c-19 -15 -19 -15 2 -13 11 0 21 7 21 14 0 16 1 16 -23 -1z"/>
<path d="M1581 1965 c-1 -5 -24 -10 -51 -9 -28 0 -53 -3 -56 -8 -9 -15 3 -21
23 -13 31 14 56 16 63 6 8 -15 33 4 27 20 -3 8 -6 10 -6 4z"/>
<path d="M1616 1908 c-11 -6 -37 -10 -58 -10 -21 1 -38 -2 -38 -7 0 -15 19
-23 32 -15 7 5 28 7 46 5 18 -1 32 1 31 6 -3 19 3 22 27 12 24 -8 25 -8 14 6
-15 18 -28 19 -54 3z"/>
<path d="M1732 1877 c-28 -62 -37 -95 -24 -82 14 13 54 116 48 122 -2 3 -13
-16 -24 -40z"/>
<path d="M1427 1862 c-24 -59 -21 -76 3 -23 12 24 19 49 17 55 -2 5 -11 -9
-20 -32z"/>
<path d="M1915 2075 c-16 -36 -26 -67 -23 -70 3 -3 17 24 33 60 15 36 25 68
23 71 -3 3 -18 -25 -33 -61z"/>
<path d="M2051 2126 c-9 -11 -9 -15 1 -18 8 -3 5 -9 -10 -17 -27 -14 -29 -41
-2 -41 10 0 24 -8 30 -17 10 -17 10 -17 20 0 6 9 18 17 25 17 22 0 18 47 -5
70 -23 23 -43 25 -59 6z m51 -13 c10 -9 18 -24 18 -35 0 -15 -8 -18 -45 -18
-51 0 -57 6 -19 20 19 8 24 15 19 30 -8 24 2 26 27 3z"/>
<path d="M2173 2059 c-7 -18 -11 -34 -9 -37 7 -7 27 39 24 55 -2 9 -8 2 -15
-18z"/>
<path d="M1931 2023 c-18 -20 -6 -29 14 -10 8 9 12 18 8 20 -5 3 -14 -2 -22
-10z"/>
<path d="M1966 2014 c-9 -24 -8 -26 14 -14 15 8 18 8 14 -3 -5 -15 -2 -16 66
-21 25 -3 47 -5 50 -6 3 -1 8 -2 13 -1 4 0 7 -3 7 -9 0 -5 9 -10 20 -10 11 0
20 7 20 15 0 8 -4 15 -10 15 -5 0 -10 -6 -10 -12 0 -9 -3 -8 -9 2 -6 8 -7 18
-5 22 3 4 0 8 -5 8 -6 0 -11 -6 -11 -12 0 -9 -4 -8 -10 2 -9 13 -11 13 -20 0
-9 -13 -12 -13 -21 3 -12 21 -31 23 -23 2 5 -11 2 -13 -10 -9 -9 3 -16 9 -16
13 0 4 -11 13 -24 19 -20 9 -25 8 -30 -4z"/>
<path d="M1861 1910 c-7 -23 -10 -44 -8 -47 7 -6 29 65 25 79 -2 6 -10 -8 -17
-32z"/>
<path d="M1941 1937 c-7 -10 -10 -18 -5 -18 45 -7 63 -7 89 -2 l30 6 -35 8
c-20 4 -40 3 -47 -2 -8 -7 -12 -5 -15 7 -3 16 -4 16 -17 1z"/>
<path d="M2102 1868 c-26 -70 -36 -104 -29 -97 10 9 58 141 53 146 -2 2 -13
-20 -24 -49z"/>
<path d="M1953 1809 c9 -6 14 -15 11 -21 -4 -7 -2 -8 4 -4 21 12 13 36 -10 36
-21 -1 -21 -2 -5 -11z"/>
<path d="M942 1625 c0 -16 4 -41 8 -55 8 -24 8 -24 8 5 0 17 -4 41 -8 55 -8
24 -8 24 -8 -5z"/>
<path d="M2751 1667 c-6 -15 -12 -50 -15 -79 l-5 -53 10 45 c5 25 14 58 19 74
12 37 4 48 -9 13z"/>
<path d="M2140 1503 c-10 -12 -11 -18 -2 -21 7 -2 12 -15 12 -28 0 -13 5 -24
10 -24 6 0 10 11 10 24 0 13 6 26 12 28 9 3 8 9 -4 21 -20 20 -19 20 -38 0z"/>
<path d="M1990 1221 c0 -11 5 -23 10 -26 6 -4 10 5 10 19 0 14 -4 26 -10 26
-5 0 -10 -9 -10 -19z"/>
<path d="M1990 1145 c0 -14 5 -25 10 -25 6 0 10 11 10 25 0 14 -4 25 -10 25
-5 0 -10 -11 -10 -25z"/>
<path d="M2050 1055 c0 -8 5 -15 10 -15 6 0 10 7 10 15 0 8 -4 15 -10 15 -5 0
-10 -7 -10 -15z"/>
<path d="M2050 1000 c0 -19 11 -26 23 -14 8 8 -3 34 -14 34 -5 0 -9 -9 -9 -20z"/>
<path d="M2160 1110 c0 -5 7 -10 15 -10 8 0 15 5 15 10 0 6 -7 10 -15 10 -8 0
-15 -4 -15 -10z"/>
<path d="M4227 2533 c-4 -3 -7 -33 -7 -65 l0 -58 268 2 267 3 3 63 3 62 -264
0 c-145 0 -267 -3 -270 -7z"/>
<path d="M4815 2515 c-52 -51 -19 -130 53 -130 54 0 82 26 82 76 0 71 -85 105
-135 54z"/>
<path d="M4988 2475 l-3 -65 183 0 182 0 0 65 0 65 -179 0 -179 0 -4 -65z"/>
<path d="M5710 2475 l0 -65 185 0 185 0 0 65 0 65 -185 0 -185 0 0 -65z"/>
<path d="M676 2476 c-19 -40 -20 -70 -3 -111 13 -28 12 -30 -27 -50 -35 -17
-42 -25 -44 -55 -3 -28 -1 -33 9 -22 15 14 49 16 49 2 0 -5 -9 -14 -19 -19
-19 -11 -41 -59 -41 -91 0 -13 10 -19 35 -22 19 -2 35 0 35 4 0 4 -11 8 -25 8
-14 0 -28 6 -31 14 -8 21 21 70 52 91 24 16 25 18 10 27 -10 6 -29 8 -42 5
-15 -2 -24 0 -24 8 0 21 36 45 68 45 38 0 38 1 11 57 -14 30 -19 52 -14 73 10
45 20 44 52 -9 33 -53 97 -92 149 -90 23 0 20 3 -19 13 -67 18 -98 43 -127
104 -14 28 -28 51 -31 52 -4 0 -14 -15 -23 -34z"/>
<path d="M2971 2475 c-24 -68 -70 -106 -148 -124 -33 -8 -34 -9 -10 -10 58 -2
145 60 162 117 3 12 11 22 16 22 5 0 14 -10 19 -22 6 -16 9 -18 9 -7 1 9 -7
27 -17 39 l-17 22 -14 -37z"/>
<path d="M710 2403 c0 -14 89 -93 104 -93 6 0 2 7 -9 15 -11 8 -37 32 -57 52
-21 20 -38 32 -38 26z"/>
<path d="M2921 2359 c-30 -27 -50 -49 -44 -49 14 0 110 86 103 93 -3 3 -29
-17 -59 -44z"/>
<path d="M2998 2361 c-23 -49 -23 -51 10 -51 15 0 38 -7 50 -16 25 -17 31 -47
7 -38 -19 8 -65 -3 -65 -16 0 -5 9 -12 21 -15 11 -4 29 -21 40 -38 10 -18 19
-25 19 -18 0 8 -12 27 -27 43 -30 32 -25 47 12 30 23 -11 25 -10 25 13 0 26
-31 65 -52 65 -7 0 -19 4 -27 9 -12 8 -12 12 -2 25 7 8 11 22 9 29 -2 8 -11
-2 -20 -22z"/>
<path d="M4558 2378 c-16 -13 -308 -451 -308 -462 0 -3 38 -6 84 -6 l84 0 155
233 c85 127 153 235 150 240 -7 12 -148 8 -165 -5z"/>
<path d="M990 2313 c-120 -13 -241 -53 -270 -91 -32 -40 -23 -47 13 -9 23 25
51 40 103 56 106 31 129 27 55 -10 -66 -33 -155 -115 -164 -152 -5 -21 -5 -21
11 3 64 94 185 169 287 178 30 2 55 9 55 14 0 6 -7 8 -15 5 -8 -4 -17 -2 -20
3 -4 6 -9 9 -13 8 -4 0 -23 -3 -42 -5z"/>
<path d="M2649 2309 c-7 -4 -19 -5 -27 -1 -9 3 -13 1 -9 -5 4 -6 29 -13 57
-15 98 -10 220 -86 282 -178 16 -23 16 -24 11 -3 -9 36 -102 121 -167 153 -49
23 -56 30 -35 30 48 0 156 -39 188 -69 19 -18 31 -24 31 -15 0 21 -68 61 -135
79 -78 21 -182 33 -196 24z"/>
<path d="M4804 2297 c-3 -8 -4 -275 -2 -593 l3 -579 23 -42 c32 -60 89 -96
163 -101 71 -5 95 0 142 32 l37 25 0 -30 0 -30 68 3 67 3 3 263 2 262 -69 0
-70 0 -3 -180 -3 -180 -28 -27 c-23 -24 -36 -28 -82 -28 -46 0 -59 4 -82 28
l-28 27 -5 578 -5 577 -63 3 c-46 2 -64 -1 -68 -11z"/>
<path d="M4987 2284 c-4 -4 -7 -178 -7 -386 l0 -378 70 0 70 0 0 150 c0 83 4
150 9 150 5 0 15 -7 22 -17 20 -24 89 -53 127 -53 70 0 125 22 172 69 129 131
100 376 -53 450 -81 39 -211 22 -258 -35 -13 -16 -14 -14 -19 17 -5 34 -5 34
-65 37 -34 2 -64 0 -68 -4z m314 -115 c109 -33 127 -218 26 -279 -49 -31 -109
-26 -150 10 -46 40 -61 79 -55 141 6 59 31 97 79 121 40 21 49 22 100 7z"/>
<path d="M5667 2262 c-94 -54 -140 -172 -117 -299 31 -164 178 -253 318 -193
28 12 57 28 63 36 18 22 29 16 29 -16 l0 -30 65 0 65 0 0 265 0 265 -65 0
c-68 0 -71 -2 -66 -52 3 -23 -5 -23 -32 3 -35 33 -85 49 -151 49 -48 0 -71 -6
-109 -28z m194 -93 c58 -18 94 -75 93 -149 -1 -96 -63 -157 -149 -147 -56 6
-91 32 -111 84 -32 83 -4 169 67 205 40 21 49 22 100 7z"/>
<path d="M5793 2103 c-31 -6 -53 -40 -53 -83 0 -91 121 -112 149 -27 23 68
-26 123 -96 110z"/>
<path d="M2940 2035 c0 -6 4 -15 9 -20 5 -6 11 -19 14 -30 5 -20 5 -19 6 1 0
11 -6 29 -14 40 -8 10 -15 14 -15 9z"/>
<path d="M722 2005 c-7 -14 -12 -36 -12 -49 0 -29 29 -114 41 -122 6 -3 4 9
-4 28 -22 52 -28 103 -17 133 14 36 7 43 -8 10z"/>
<path d="M2961 1922 c0 -13 -8 -37 -17 -53 -8 -17 -13 -33 -10 -36 10 -10 37
68 33 91 -4 20 -4 20 -6 -2z"/>
<path d="M4224 1867 c-3 -13 -4 -41 -2 -63 l3 -39 268 -3 267 -2 0 65 0 65
-265 0 -265 0 -6 -23z"/>
<path d="M6209 1744 c-133 -53 -196 -124 -157 -177 13 -18 17 -17 83 8 127 49
146 58 171 88 26 30 31 66 14 98 -13 23 -7 24 -111 -17z"/>
<path d="M5361 1714 c-45 -57 -12 -124 61 -124 48 0 78 28 78 73 0 72 -96 106
-139 51z"/>
<path d="M4302 1671 c-153 -54 -240 -190 -230 -356 12 -183 143 -313 327 -323
42 -2 88 1 104 7 l27 11 -25 50 -25 50 -53 0 c-145 0 -242 132 -209 286 13 65
46 112 98 145 45 27 152 31 199 6 41 -21 80 -65 99 -111 19 -45 21 -136 5
-181 -10 -27 -8 -38 20 -93 17 -34 35 -62 40 -62 14 0 59 75 77 129 23 71 16
198 -15 262 -35 74 -86 125 -157 160 -84 42 -198 50 -282 20z"/>
<path d="M5766 1505 c-21 -7 -51 -26 -67 -41 l-29 -28 0 37 0 37 -70 0 -70 0
2 -262 3 -263 68 -3 67 -3 0 166 0 167 29 28 c21 21 42 31 80 36 l52 7 -3 65
c-2 36 -7 67 -13 68 -5 2 -27 -3 -49 -11z"/>
<path d="M5979 1505 c-53 -17 -107 -66 -135 -121 -27 -55 -27 -223 0 -274 72
-136 223 -176 343 -91 l43 31 0 -35 0 -35 65 0 65 0 0 265 0 265 -65 0 -65 0
0 -37 0 -37 -27 26 c-16 14 -38 31 -49 37 -37 19 -125 22 -175 6z m179 -125
c77 -47 97 -153 43 -228 -66 -90 -193 -76 -235 28 -22 55 -20 97 7 145 39 70
121 94 185 55z"/>
<path d="M5350 1245 l0 -266 68 3 67 3 0 260 0 260 -67 3 -68 3 0 -266z"/>
<path d="M4351 1424 c-28 -23 -31 -31 -31 -83 0 -50 4 -61 29 -85 33 -32 96
-38 135 -13 52 34 58 136 11 183 -34 34 -102 33 -144 -2z"/>
<path d="M4545 1155 l-40 -34 19 -33 c134 -232 317 -375 559 -439 278 -72 597
5 803 195 l66 61 -47 24 c-31 17 -51 22 -60 15 -7 -5 -38 -30 -69 -55 -66 -53
-181 -112 -263 -135 -32 -9 -114 -19 -184 -21 -107 -5 -138 -2 -215 17 -206
51 -396 197 -494 382 -17 32 -32 58 -33 58 -1 -1 -20 -16 -42 -35z"/>
<path d="M1197 1022 c-30 -33 -16 -82 23 -82 19 0 50 30 50 48 0 14 -36 52
-48 52 -5 0 -16 -8 -25 -18z"/>
<path d="M2442 1008 c-27 -27 -6 -68 35 -68 24 0 40 36 29 65 -7 18 -47 20
-64 3z"/>
<path d="M1295 917 c4 -16 0 -29 -14 -41 -12 -11 -21 -26 -21 -35 0 -10 11 -5
33 17 38 37 53 33 30 -7 -31 -53 8 -107 57 -81 19 10 20 10 8 -10 -11 -18 -10
-23 7 -36 11 -8 30 -13 43 -12 16 2 26 -4 35 -22 7 -14 21 -26 30 -28 26 -5
57 27 57 58 0 35 -22 54 -55 48 -15 -3 -25 -1 -25 7 0 6 -11 22 -26 35 -19 19
-27 22 -33 11 -6 -9 -10 -6 -15 13 -4 16 -15 28 -31 32 -14 3 -25 12 -25 18 0
13 -41 56 -53 56 -4 0 -5 -10 -2 -23z m89 -83 c8 -21 -21 -55 -40 -47 -17 6
-18 35 -2 51 17 17 35 15 42 -4z m74 -61 c4 -24 -22 -47 -43 -39 -14 5 -14 9
0 36 18 34 38 35 43 3z m82 -47 c0 -26 -24 -51 -40 -41 -11 7 -14 48 -3 58 3
4 15 7 25 7 12 0 18 -7 18 -24z"/>
<path d="M2374 916 c-3 -7 2 -30 10 -51 22 -52 20 -54 -13 -15 -38 46 -51 32
-15 -15 25 -33 26 -37 9 -34 -12 3 -21 14 -23 27 -6 37 -25 35 -93 -10 -50
-34 -60 -44 -43 -46 12 -2 28 -17 37 -38 10 -19 21 -33 26 -29 5 3 1 22 -9 43
-26 53 -7 67 30 22 16 -19 32 -32 36 -28 4 4 1 14 -6 23 -17 21 -5 31 23 18
19 -9 28 -6 49 12 14 12 28 33 30 46 2 16 11 25 26 27 33 5 27 16 -23 40 -37
18 -47 19 -51 8z m-57 -101 c-4 -8 -11 -15 -17 -15 -14 0 -13 27 3 33 16 6 21
1 14 -18z"/>
<path d="M2155 760 c-3 -5 -3 -33 1 -61 7 -51 7 -51 24 -29 12 16 23 21 38 15
29 -8 28 0 -4 39 -32 38 -51 49 -59 36z m35 -45 c0 -8 -4 -15 -10 -15 -5 0
-10 7 -10 15 0 8 5 15 10 15 6 0 10 -7 10 -15z"/>
<path d="M2083 734 c-16 -7 -16 -18 -2 -66 5 -21 15 -38 21 -38 6 0 8 9 5 20
-3 13 1 21 15 26 27 8 21 58 -7 61 -11 1 -26 -1 -32 -3z m37 -29 c0 -8 -7 -15
-15 -15 -8 0 -15 7 -15 15 0 8 7 15 15 15 8 0 15 -7 15 -15z"/>
<path d="M1601 708 c-17 -47 -21 -78 -11 -78 6 0 13 7 16 15 4 9 19 15 35 15
24 0 29 -4 29 -25 0 -44 72 -59 83 -17 3 12 5 11 6 -5 0 -13 5 -23 10 -23 5 0
11 10 15 23 6 22 6 22 31 -8 18 -22 24 -26 25 -13 0 9 -4 20 -10 23 -6 4 -5
13 2 24 6 10 8 26 4 36 -5 14 -14 17 -46 12 -22 -3 -43 -1 -46 5 -4 5 -20 8
-38 5 -18 -2 -35 1 -41 8 -5 7 -20 16 -32 20 -18 5 -25 1 -32 -17z m49 -19 c0
-5 -7 -9 -15 -9 -8 0 -15 7 -15 15 0 9 6 12 15 9 8 -4 15 -10 15 -15z m88 -35
c3 -23 -21 -49 -38 -39 -11 7 -14 48 -3 59 13 13 38 1 41 -20z m82 6 c0 -5 -7
-10 -15 -10 -8 0 -15 5 -15 10 0 6 7 10 15 10 8 0 15 -4 15 -10z"/>
<path d="M1980 683 c0 -10 -3 -36 -6 -58 -5 -37 -4 -38 10 -22 11 15 22 17 47
12 l32 -7 -25 43 c-28 47 -58 63 -58 32z"/>
<path d="M1887 638 c3 -29 6 -54 7 -54 1 -1 16 1 34 3 37 6 43 23 8 23 -20 0
-25 6 -31 40 -10 59 -25 49 -18 -12z"/>
</g>
</svg>
